<?xml version="1.0" encoding="UTF-8"?>
<svg width="800" height="800" viewBox="0 0 800 800" xmlns="http://www.w3.org/2000/svg">
  <defs>
    <!-- Hidden message pattern -->
    <pattern id="hiddenPattern" x="0" y="0" width="256" height="36" patternUnits="userSpaceOnUse">
      <rect x="0" y="0" width="4" height="4" fill="#16213e" />
<rect x="4" y="0" width="4" height="4" fill="#1a1a2e" />
<rect x="8" y="0" width="4" height="4" fill="#16213e" />
<rect x="12" y="0" width="4" height="4" fill="#1a1a2e" />
<rect x="16" y="0" width="4" height="4" fill="#16213e" />
<rect x="20" y="0" width="4" height="4" fill="#1a1a2e" />
<rect x="24" y="0" width="4" height="4" fill="#1a1a2e" />
<rect x="28" y="0" width="4" height="4" fill="#1a1a2e" />
<rect x="32" y="0" width="4" height="4" fill="#16213e" />
<rect x="36" y="0" width="4" height="4" fill="#1a1a2e" />
<rect x="40" y="0" width="4" height="4" fill="#16213e" />
<rect x="44" y="0" width="4" height="4" fill="#16213e" />
<rect x="48" y="0" width="4" height="4" fill="#16213e" />
<rect x="52" y="0" width="4" height="4" fill="#1a1a2e" />
<rect x="56" y="0" width="4" height="4" fill="#16213e" />
<rect x="60" y="0" width="4" height="4" fill="#1a1a2e" />
<rect x="64" y="0" width="4" height="4" fill="#16213e" />
<rect x="68" y="0" width="4" height="4" fill="#16213e" />
<rect x="72" y="0" width="4" height="4" fill="#1a1a2e" />
<rect x="76" y="0" width="4" height="4" fill="#16213e" />
<rect x="80" y="0" width="4" height="4" fill="#16213e" />
<rect x="84" y="0" width="4" height="4" fill="#16213e" />
<rect x="88" y="0" width="4" height="4" fill="#16213e" />
<rect x="92" y="0" width="4" height="4" fill="#16213e" />
<rect x="96" y="0" width="4" height="4" fill="#16213e" />
<rect x="100" y="0" width="4" height="4" fill="#1a1a2e" />
<rect x="104" y="0" width="4" height="4" fill="#16213e" />
<rect x="108" y="0" width="4" height="4" fill="#16213e" />
<rect x="112" y="0" width="4" height="4" fill="#16213e" />
<rect x="116" y="0" width="4" height="4" fill="#16213e" />
<rect x="120" y="0" width="4" height="4" fill="#16213e" />
<rect x="124" y="0" width="4" height="4" fill="#1a1a2e" />
<rect x="128" y="0" width="4" height="4" fill="#16213e" />
<rect x="132" y="0" width="4" height="4" fill="#1a1a2e" />
<rect x="136" y="0" width="4" height="4" fill="#16213e" />
<rect x="140" y="0" width="4" height="4" fill="#1a1a2e" />
<rect x="144" y="0" width="4" height="4" fill="#16213e" />
<rect x="148" y="0" width="4" height="4" fill="#16213e" />
<rect x="152" y="0" width="4" height="4" fill="#1a1a2e" />
<rect x="156" y="0" width="4" height="4" fill="#16213e" />
<rect x="160" y="0" width="4" height="4" fill="#16213e" />
<rect x="164" y="0" width="4" height="4" fill="#1a1a2e" />
<rect x="168" y="0" width="4" height="4" fill="#16213e" />
<rect x="172" y="0" width="4" height="4" fill="#16213e" />
<rect x="176" y="0" width="4" height="4" fill="#16213e" />
<rect x="180" y="0" width="4" height="4" fill="#1a1a2e" />
<rect x="184" y="0" width="4" height="4" fill="#16213e" />
<rect x="188" y="0" width="4" height="4" fill="#1a1a2e" />
<rect x="192" y="0" width="4" height="4" fill="#16213e" />
<rect x="196" y="0" width="4" height="4" fill="#16213e" />
<rect x="200" y="0" width="4" height="4" fill="#1a1a2e" />
<rect x="204" y="0" width="4" height="4" fill="#16213e" />
<rect x="208" y="0" width="4" height="4" fill="#16213e" />
<rect x="212" y="0" width="4" height="4" fill="#16213e" />
<rect x="216" y="0" width="4" height="4" fill="#16213e" />
<rect x="220" y="0" width="4" height="4" fill="#16213e" />
<rect x="224" y="0" width="4" height="4" fill="#16213e" />
<rect x="228" y="0" width="4" height="4" fill="#1a1a2e" />
<rect x="232" y="0" width="4" height="4" fill="#16213e" />
<rect x="236" y="0" width="4" height="4" fill="#1a1a2e" />
<rect x="240" y="0" width="4" height="4" fill="#16213e" />
<rect x="244" y="0" width="4" height="4" fill="#1a1a2e" />
<rect x="248" y="0" width="4" height="4" fill="#16213e" />
<rect x="252" y="0" width="4" height="4" fill="#16213e" />
<rect x="0" y="4" width="4" height="4" fill="#16213e" />
<rect x="4" y="4" width="4" height="4" fill="#1a1a2e" />
<rect x="8" y="4" width="4" height="4" fill="#16213e" />
<rect x="12" y="4" width="4" height="4" fill="#16213e" />
<rect x="16" y="4" width="4" height="4" fill="#1a1a2e" />
<rect x="20" y="4" width="4" height="4" fill="#16213e" />
<rect x="24" y="4" width="4" height="4" fill="#16213e" />
<rect x="28" y="4" width="4" height="4" fill="#16213e" />
<rect x="32" y="4" width="4" height="4" fill="#16213e" />
<rect x="36" y="4" width="4" height="4" fill="#1a1a2e" />
<rect x="40" y="4" width="4" height="4" fill="#16213e" />
<rect x="44" y="4" width="4" height="4" fill="#16213e" />
<rect x="48" y="4" width="4" height="4" fill="#16213e" />
<rect x="52" y="4" width="4" height="4" fill="#1a1a2e" />
<rect x="56" y="4" width="4" height="4" fill="#16213e" />
<rect x="60" y="4" width="4" height="4" fill="#1a1a2e" />
<rect x="64" y="4" width="4" height="4" fill="#16213e" />
<rect x="68" y="4" width="4" height="4" fill="#16213e" />
<rect x="72" y="4" width="4" height="4" fill="#1a1a2e" />
<rect x="76" y="4" width="4" height="4" fill="#16213e" />
<rect x="80" y="4" width="4" height="4" fill="#16213e" />
<rect x="84" y="4" width="4" height="4" fill="#16213e" />
<rect x="88" y="4" width="4" height="4" fill="#16213e" />
<rect x="92" y="4" width="4" height="4" fill="#16213e" />
<rect x="96" y="4" width="4" height="4" fill="#16213e" />
<rect x="100" y="4" width="4" height="4" fill="#1a1a2e" />
<rect x="104" y="4" width="4" height="4" fill="#16213e" />
<rect x="108" y="4" width="4" height="4" fill="#16213e" />
<rect x="112" y="4" width="4" height="4" fill="#16213e" />
<rect x="116" y="4" width="4" height="4" fill="#1a1a2e" />
<rect x="120" y="4" width="4" height="4" fill="#1a1a2e" />
<rect x="124" y="4" width="4" height="4" fill="#1a1a2e" />
<rect x="128" y="4" width="4" height="4" fill="#16213e" />
<rect x="132" y="4" width="4" height="4" fill="#1a1a2e" />
<rect x="136" y="4" width="4" height="4" fill="#16213e" />
<rect x="140" y="4" width="4" height="4" fill="#1a1a2e" />
<rect x="144" y="4" width="4" height="4" fill="#16213e" />
<rect x="148" y="4" width="4" height="4" fill="#1a1a2e" />
<rect x="152" y="4" width="4" height="4" fill="#16213e" />
<rect x="156" y="4" width="4" height="4" fill="#1a1a2e" />
<rect x="160" y="4" width="4" height="4" fill="#16213e" />
<rect x="164" y="4" width="4" height="4" fill="#1a1a2e" />
<rect x="168" y="4" width="4" height="4" fill="#16213e" />
<rect x="172" y="4" width="4" height="4" fill="#16213e" />
<rect x="176" y="4" width="4" height="4" fill="#16213e" />
<rect x="180" y="4" width="4" height="4" fill="#16213e" />
<rect x="184" y="4" width="4" height="4" fill="#16213e" />
<rect x="188" y="4" width="4" height="4" fill="#1a1a2e" />
<rect x="192" y="4" width="4" height="4" fill="#16213e" />
<rect x="196" y="4" width="4" height="4" fill="#1a1a2e" />
<rect x="200" y="4" width="4" height="4" fill="#16213e" />
<rect x="204" y="4" width="4" height="4" fill="#1a1a2e" />
<rect x="208" y="4" width="4" height="4" fill="#16213e" />
<rect x="212" y="4" width="4" height="4" fill="#16213e" />
<rect x="216" y="4" width="4" height="4" fill="#1a1a2e" />
<rect x="220" y="4" width="4" height="4" fill="#16213e" />
<rect x="224" y="4" width="4" height="4" fill="#16213e" />
<rect x="228" y="4" width="4" height="4" fill="#1a1a2e" />
<rect x="232" y="4" width="4" height="4" fill="#16213e" />
<rect x="236" y="4" width="4" height="4" fill="#16213e" />
<rect x="240" y="4" width="4" height="4" fill="#16213e" />
<rect x="244" y="4" width="4" height="4" fill="#1a1a2e" />
<rect x="248" y="4" width="4" height="4" fill="#16213e" />
<rect x="252" y="4" width="4" height="4" fill="#16213e" />
<rect x="0" y="8" width="4" height="4" fill="#16213e" />
<rect x="4" y="8" width="4" height="4" fill="#1a1a2e" />
<rect x="8" y="8" width="4" height="4" fill="#16213e" />
<rect x="12" y="8" width="4" height="4" fill="#16213e" />
<rect x="16" y="8" width="4" height="4" fill="#1a1a2e" />
<rect x="20" y="8" width="4" height="4" fill="#16213e" />
<rect x="24" y="8" width="4" height="4" fill="#16213e" />
<rect x="28" y="8" width="4" height="4" fill="#1a1a2e" />
<rect x="32" y="8" width="4" height="4" fill="#16213e" />
<rect x="36" y="8" width="4" height="4" fill="#1a1a2e" />
<rect x="40" y="8" width="4" height="4" fill="#16213e" />
<rect x="44" y="8" width="4" height="4" fill="#16213e" />
<rect x="48" y="8" width="4" height="4" fill="#16213e" />
<rect x="52" y="8" width="4" height="4" fill="#16213e" />
<rect x="56" y="8" width="4" height="4" fill="#16213e" />
<rect x="60" y="8" width="4" height="4" fill="#1a1a2e" />
<rect x="64" y="8" width="4" height="4" fill="#16213e" />
<rect x="68" y="8" width="4" height="4" fill="#1a1a2e" />
<rect x="72" y="8" width="4" height="4" fill="#16213e" />
<rect x="76" y="8" width="4" height="4" fill="#16213e" />
<rect x="80" y="8" width="4" height="4" fill="#1a1a2e" />
<rect x="84" y="8" width="4" height="4" fill="#1a1a2e" />
<rect x="88" y="8" width="4" height="4" fill="#1a1a2e" />
<rect x="92" y="8" width="4" height="4" fill="#16213e" />
<rect x="96" y="8" width="4" height="4" fill="#16213e" />
<rect x="100" y="8" width="4" height="4" fill="#1a1a2e" />
<rect x="104" y="8" width="4" height="4" fill="#16213e" />
<rect x="108" y="8" width="4" height="4" fill="#1a1a2e" />
<rect x="112" y="8" width="4" height="4" fill="#16213e" />
<rect x="116" y="8" width="4" height="4" fill="#16213e" />
<rect x="120" y="8" width="4" height="4" fill="#1a1a2e" />
<rect x="124" y="8" width="4" height="4" fill="#1a1a2e" />
<rect x="128" y="8" width="4" height="4" fill="#16213e" />
<rect x="132" y="8" width="4" height="4" fill="#16213e" />
<rect x="136" y="8" width="4" height="4" fill="#1a1a2e" />
<rect x="140" y="8" width="4" height="4" fill="#16213e" />
<rect x="144" y="8" width="4" height="4" fill="#1a1a2e" />
<rect x="148" y="8" width="4" height="4" fill="#1a1a2e" />
<rect x="152" y="8" width="4" height="4" fill="#1a1a2e" />
<rect x="156" y="8" width="4" height="4" fill="#16213e" />
<rect x="160" y="8" width="4" height="4" fill="#16213e" />
<rect x="164" y="8" width="4" height="4" fill="#16213e" />
<rect x="168" y="8" width="4" height="4" fill="#1a1a2e" />
<rect x="172" y="8" width="4" height="4" fill="#16213e" />
<rect x="176" y="8" width="4" height="4" fill="#16213e" />
<rect x="180" y="8" width="4" height="4" fill="#16213e" />
<rect x="184" y="8" width="4" height="4" fill="#16213e" />
<rect x="188" y="8" width="4" height="4" fill="#16213e" />
<rect x="192" y="8" width="4" height="4" fill="#16213e" />
<rect x="196" y="8" width="4" height="4" fill="#1a1a2e" />
<rect x="200" y="8" width="4" height="4" fill="#16213e" />
<rect x="204" y="8" width="4" height="4" fill="#1a1a2e" />
<rect x="208" y="8" width="4" height="4" fill="#16213e" />
<rect x="212" y="8" width="4" height="4" fill="#1a1a2e" />
<rect x="216" y="8" width="4" height="4" fill="#16213e" />
<rect x="220" y="8" width="4" height="4" fill="#1a1a2e" />
<rect x="224" y="8" width="4" height="4" fill="#16213e" />
<rect x="228" y="8" width="4" height="4" fill="#1a1a2e" />
<rect x="232" y="8" width="4" height="4" fill="#16213e" />
<rect x="236" y="8" width="4" height="4" fill="#16213e" />
<rect x="240" y="8" width="4" height="4" fill="#1a1a2e" />
<rect x="244" y="8" width="4" height="4" fill="#1a1a2e" />
<rect x="248" y="8" width="4" height="4" fill="#1a1a2e" />
<rect x="252" y="8" width="4" height="4" fill="#16213e" />
<rect x="0" y="12" width="4" height="4" fill="#16213e" />
<rect x="4" y="12" width="4" height="4" fill="#1a1a2e" />
<rect x="8" y="12" width="4" height="4" fill="#16213e" />
<rect x="12" y="12" width="4" height="4" fill="#16213e" />
<rect x="16" y="12" width="4" height="4" fill="#1a1a2e" />
<rect x="20" y="12" width="4" height="4" fill="#16213e" />
<rect x="24" y="12" width="4" height="4" fill="#16213e" />
<rect x="28" y="12" width="4" height="4" fill="#1a1a2e" />
<rect x="32" y="12" width="4" height="4" fill="#16213e" />
<rect x="36" y="12" width="4" height="4" fill="#1a1a2e" />
<rect x="40" y="12" width="4" height="4" fill="#16213e" />
<rect x="44" y="12" width="4" height="4" fill="#1a1a2e" />
<rect x="48" y="12" width="4" height="4" fill="#16213e" />
<rect x="52" y="12" width="4" height="4" fill="#1a1a2e" />
<rect x="56" y="12" width="4" height="4" fill="#16213e" />
<rect x="60" y="12" width="4" height="4" fill="#16213e" />
<rect x="64" y="12" width="4" height="4" fill="#16213e" />
<rect x="68" y="12" width="4" height="4" fill="#1a1a2e" />
<rect x="72" y="12" width="4" height="4" fill="#16213e" />
<rect x="76" y="12" width="4" height="4" fill="#1a1a2e" />
<rect x="80" y="12" width="4" height="4" fill="#1a1a2e" />
<rect x="84" y="12" width="4" height="4" fill="#16213e" />
<rect x="88" y="12" width="4" height="4" fill="#16213e" />
<rect x="92" y="12" width="4" height="4" fill="#1a1a2e" />
<rect x="96" y="12" width="4" height="4" fill="#16213e" />
<rect x="100" y="12" width="4" height="4" fill="#16213e" />
<rect x="104" y="12" width="4" height="4" fill="#1a1a2e" />
<rect x="108" y="12" width="4" height="4" fill="#16213e" />
<rect x="112" y="12" width="4" height="4" fill="#16213e" />
<rect x="116" y="12" width="4" height="4" fill="#16213e" />
<rect x="120" y="12" width="4" height="4" fill="#16213e" />
<rect x="124" y="12" width="4" height="4" fill="#16213e" />
<rect x="128" y="12" width="4" height="4" fill="#16213e" />
<rect x="132" y="12" width="4" height="4" fill="#1a1a2e" />
<rect x="136" y="12" width="4" height="4" fill="#16213e" />
<rect x="140" y="12" width="4" height="4" fill="#1a1a2e" />
<rect x="144" y="12" width="4" height="4" fill="#16213e" />
<rect x="148" y="12" width="4" height="4" fill="#1a1a2e" />
<rect x="152" y="12" width="4" height="4" fill="#16213e" />
<rect x="156" y="12" width="4" height="4" fill="#16213e" />
<rect x="160" y="12" width="4" height="4" fill="#16213e" />
<rect x="164" y="12" width="4" height="4" fill="#1a1a2e" />
<rect x="168" y="12" width="4" height="4" fill="#16213e" />
<rect x="172" y="12" width="4" height="4" fill="#16213e" />
<rect x="176" y="12" width="4" height="4" fill="#1a1a2e" />
<rect x="180" y="12" width="4" height="4" fill="#16213e" />
<rect x="184" y="12" width="4" height="4" fill="#16213e" />
<rect x="188" y="12" width="4" height="4" fill="#16213e" />
<rect x="192" y="12" width="4" height="4" fill="#16213e" />
<rect x="196" y="12" width="4" height="4" fill="#1a1a2e" />
<rect x="200" y="12" width="4" height="4" fill="#16213e" />
<rect x="204" y="12" width="4" height="4" fill="#1a1a2e" />
<rect x="208" y="12" width="4" height="4" fill="#16213e" />
<rect x="212" y="12" width="4" height="4" fill="#16213e" />
<rect x="216" y="12" width="4" height="4" fill="#1a1a2e" />
<rect x="220" y="12" width="4" height="4" fill="#16213e" />
<rect x="224" y="12" width="4" height="4" fill="#16213e" />
<rect x="228" y="12" width="4" height="4" fill="#1a1a2e" />
<rect x="232" y="12" width="4" height="4" fill="#16213e" />
<rect x="236" y="12" width="4" height="4" fill="#16213e" />
<rect x="240" y="12" width="4" height="4" fill="#1a1a2e" />
<rect x="244" y="12" width="4" height="4" fill="#1a1a2e" />
<rect x="248" y="12" width="4" height="4" fill="#1a1a2e" />
<rect x="252" y="12" width="4" height="4" fill="#1a1a2e" />
<rect x="0" y="16" width="4" height="4" fill="#16213e" />
<rect x="4" y="16" width="4" height="4" fill="#1a1a2e" />
<rect x="8" y="16" width="4" height="4" fill="#16213e" />
<rect x="12" y="16" width="4" height="4" fill="#1a1a2e" />
<rect x="16" y="16" width="4" height="4" fill="#16213e" />
<rect x="20" y="16" width="4" height="4" fill="#1a1a2e" />
<rect x="24" y="16" width="4" height="4" fill="#16213e" />
<rect x="28" y="16" width="4" height="4" fill="#1a1a2e" />
<rect x="32" y="16" width="4" height="4" fill="#16213e" />
<rect x="36" y="16" width="4" height="4" fill="#1a1a2e" />
<rect x="40" y="16" width="4" height="4" fill="#16213e" />
<rect x="44" y="16" width="4" height="4" fill="#16213e" />
<rect x="48" y="16" width="4" height="4" fill="#16213e" />
<rect x="52" y="16" width="4" height="4" fill="#1a1a2e" />
<rect x="56" y="16" width="4" height="4" fill="#1a1a2e" />
<rect x="60" y="16" width="4" height="4" fill="#1a1a2e" />
<rect x="64" y="16" width="4" height="4" fill="#16213e" />
<rect x="68" y="16" width="4" height="4" fill="#1a1a2e" />
<rect x="72" y="16" width="4" height="4" fill="#16213e" />
<rect x="76" y="16" width="4" height="4" fill="#16213e" />
<rect x="80" y="16" width="4" height="4" fill="#1a1a2e" />
<rect x="84" y="16" width="4" height="4" fill="#16213e" />
<rect x="88" y="16" width="4" height="4" fill="#16213e" />
<rect x="92" y="16" width="4" height="4" fill="#16213e" />
<rect x="96" y="16" width="4" height="4" fill="#16213e" />
<rect x="100" y="16" width="4" height="4" fill="#16213e" />
<rect x="104" y="16" width="4" height="4" fill="#1a1a2e" />
<rect x="108" y="16" width="4" height="4" fill="#16213e" />
<rect x="112" y="16" width="4" height="4" fill="#16213e" />
<rect x="116" y="16" width="4" height="4" fill="#16213e" />
<rect x="120" y="16" width="4" height="4" fill="#16213e" />
<rect x="124" y="16" width="4" height="4" fill="#16213e" />
<rect x="128" y="16" width="4" height="4" fill="#16213e" />
<rect x="132" y="16" width="4" height="4" fill="#1a1a2e" />
<rect x="136" y="16" width="4" height="4" fill="#16213e" />
<rect x="140" y="16" width="4" height="4" fill="#1a1a2e" />
<rect x="144" y="16" width="4" height="4" fill="#16213e" />
<rect x="148" y="16" width="4" height="4" fill="#1a1a2e" />
<rect x="152" y="16" width="4" height="4" fill="#16213e" />
<rect x="156" y="16" width="4" height="4" fill="#16213e" />
<rect x="160" y="16" width="4" height="4" fill="#16213e" />
<rect x="164" y="16" width="4" height="4" fill="#1a1a2e" />
<rect x="168" y="16" width="4" height="4" fill="#16213e" />
<rect x="172" y="16" width="4" height="4" fill="#1a1a2e" />
<rect x="176" y="16" width="4" height="4" fill="#16213e" />
<rect x="180" y="16" width="4" height="4" fill="#16213e" />
<rect x="184" y="16" width="4" height="4" fill="#1a1a2e" />
<rect x="188" y="16" width="4" height="4" fill="#16213e" />
<rect x="192" y="16" width="4" height="4" fill="#16213e" />
<rect x="196" y="16" width="4" height="4" fill="#1a1a2e" />
<rect x="200" y="16" width="4" height="4" fill="#16213e" />
<rect x="204" y="16" width="4" height="4" fill="#1a1a2e" />
<rect x="208" y="16" width="4" height="4" fill="#16213e" />
<rect x="212" y="16" width="4" height="4" fill="#1a1a2e" />
<rect x="216" y="16" width="4" height="4" fill="#16213e" />
<rect x="220" y="16" width="4" height="4" fill="#1a1a2e" />
<rect x="224" y="16" width="4" height="4" fill="#16213e" />
<rect x="228" y="16" width="4" height="4" fill="#1a1a2e" />
<rect x="232" y="16" width="4" height="4" fill="#16213e" />
<rect x="236" y="16" width="4" height="4" fill="#1a1a2e" />
<rect x="240" y="16" width="4" height="4" fill="#16213e" />
<rect x="244" y="16" width="4" height="4" fill="#1a1a2e" />
<rect x="248" y="16" width="4" height="4" fill="#16213e" />
<rect x="252" y="16" width="4" height="4" fill="#16213e" />
<rect x="0" y="20" width="4" height="4" fill="#16213e" />
<rect x="4" y="20" width="4" height="4" fill="#1a1a2e" />
<rect x="8" y="20" width="4" height="4" fill="#16213e" />
<rect x="12" y="20" width="4" height="4" fill="#16213e" />
<rect x="16" y="20" width="4" height="4" fill="#1a1a2e" />
<rect x="20" y="20" width="4" height="4" fill="#16213e" />
<rect x="24" y="20" width="4" height="4" fill="#16213e" />
<rect x="28" y="20" width="4" height="4" fill="#16213e" />
<rect x="32" y="20" width="4" height="4" fill="#16213e" />
<rect x="36" y="20" width="4" height="4" fill="#16213e" />
<rect x="40" y="20" width="4" height="4" fill="#1a1a2e" />
<rect x="44" y="20" width="4" height="4" fill="#16213e" />
<rect x="48" y="20" width="4" height="4" fill="#1a1a2e" />
<rect x="52" y="20" width="4" height="4" fill="#1a1a2e" />
<rect x="56" y="20" width="4" height="4" fill="#1a1a2e" />
<rect x="60" y="20" width="4" height="4" fill="#16213e" />
<rect x="64" y="20" width="4" height="4" fill="#16213e" />
<rect x="68" y="20" width="4" height="4" fill="#16213e" />
<rect x="72" y="20" width="4" height="4" fill="#1a1a2e" />
<rect x="76" y="20" width="4" height="4" fill="#16213e" />
<rect x="80" y="20" width="4" height="4" fill="#16213e" />
<rect x="84" y="20" width="4" height="4" fill="#16213e" />
<rect x="88" y="20" width="4" height="4" fill="#16213e" />
<rect x="92" y="20" width="4" height="4" fill="#16213e" />
<rect x="96" y="20" width="4" height="4" fill="#16213e" />
<rect x="100" y="20" width="4" height="4" fill="#1a1a2e" />
<rect x="104" y="20" width="4" height="4" fill="#16213e" />
<rect x="108" y="20" width="4" height="4" fill="#16213e" />
<rect x="112" y="20" width="4" height="4" fill="#16213e" />
<rect x="116" y="20" width="4" height="4" fill="#16213e" />
<rect x="120" y="20" width="4" height="4" fill="#1a1a2e" />
<rect x="124" y="20" width="4" height="4" fill="#1a1a2e" />
<rect x="128" y="20" width="4" height="4" fill="#16213e" />
<rect x="132" y="20" width="4" height="4" fill="#1a1a2e" />
<rect x="136" y="20" width="4" height="4" fill="#16213e" />
<rect x="140" y="20" width="4" height="4" fill="#16213e" />
<rect x="144" y="20" width="4" height="4" fill="#1a1a2e" />
<rect x="148" y="20" width="4" height="4" fill="#1a1a2e" />
<rect x="152" y="20" width="4" height="4" fill="#1a1a2e" />
<rect x="156" y="20" width="4" height="4" fill="#1a1a2e" />
<rect x="160" y="20" width="4" height="4" fill="#16213e" />
<rect x="164" y="20" width="4" height="4" fill="#1a1a2e" />
<rect x="168" y="20" width="4" height="4" fill="#16213e" />
<rect x="172" y="20" width="4" height="4" fill="#16213e" />
<rect x="176" y="20" width="4" height="4" fill="#16213e" />
<rect x="180" y="20" width="4" height="4" fill="#16213e" />
<rect x="184" y="20" width="4" height="4" fill="#16213e" />
<rect x="188" y="20" width="4" height="4" fill="#1a1a2e" />
<rect x="192" y="20" width="4" height="4" fill="#16213e" />
<rect x="196" y="20" width="4" height="4" fill="#1a1a2e" />
<rect x="200" y="20" width="4" height="4" fill="#16213e" />
<rect x="204" y="20" width="4" height="4" fill="#16213e" />
<rect x="208" y="20" width="4" height="4" fill="#1a1a2e" />
<rect x="212" y="20" width="4" height="4" fill="#1a1a2e" />
<rect x="216" y="20" width="4" height="4" fill="#16213e" />
<rect x="220" y="20" width="4" height="4" fill="#16213e" />
<rect x="224" y="20" width="4" height="4" fill="#16213e" />
<rect x="228" y="20" width="4" height="4" fill="#1a1a2e" />
<rect x="232" y="20" width="4" height="4" fill="#16213e" />
<rect x="236" y="20" width="4" height="4" fill="#16213e" />
<rect x="240" y="20" width="4" height="4" fill="#1a1a2e" />
<rect x="244" y="20" width="4" height="4" fill="#16213e" />
<rect x="248" y="20" width="4" height="4" fill="#16213e" />
<rect x="252" y="20" width="4" height="4" fill="#1a1a2e" />
<rect x="0" y="24" width="4" height="4" fill="#16213e" />
<rect x="4" y="24" width="4" height="4" fill="#1a1a2e" />
<rect x="8" y="24" width="4" height="4" fill="#16213e" />
<rect x="12" y="24" width="4" height="4" fill="#1a1a2e" />
<rect x="16" y="24" width="4" height="4" fill="#16213e" />
<rect x="20" y="24" width="4" height="4" fill="#1a1a2e" />
<rect x="24" y="24" width="4" height="4" fill="#16213e" />
<rect x="28" y="24" width="4" height="4" fill="#16213e" />
<rect x="32" y="24" width="4" height="4" fill="#16213e" />
<rect x="36" y="24" width="4" height="4" fill="#1a1a2e" />
<rect x="40" y="24" width="4" height="4" fill="#16213e" />
<rect x="44" y="24" width="4" height="4" fill="#16213e" />
<rect x="48" y="24" width="4" height="4" fill="#1a1a2e" />
<rect x="52" y="24" width="4" height="4" fill="#16213e" />
<rect x="56" y="24" width="4" height="4" fill="#16213e" />
<rect x="60" y="24" width="4" height="4" fill="#1a1a2e" />
<rect x="64" y="24" width="4" height="4" fill="#16213e" />
<rect x="68" y="24" width="4" height="4" fill="#1a1a2e" />
<rect x="72" y="24" width="4" height="4" fill="#16213e" />
<rect x="76" y="24" width="4" height="4" fill="#16213e" />
<rect x="80" y="24" width="4" height="4" fill="#1a1a2e" />
<rect x="84" y="24" width="4" height="4" fill="#1a1a2e" />
<rect x="88" y="24" width="4" height="4" fill="#1a1a2e" />
<rect x="92" y="24" width="4" height="4" fill="#1a1a2e" />
<rect x="96" y="24" width="4" height="4" fill="#16213e" />
<rect x="100" y="24" width="4" height="4" fill="#1a1a2e" />
<rect x="104" y="24" width="4" height="4" fill="#16213e" />
<rect x="108" y="24" width="4" height="4" fill="#16213e" />
<rect x="112" y="24" width="4" height="4" fill="#1a1a2e" />
<rect x="116" y="24" width="4" height="4" fill="#1a1a2e" />
<rect x="120" y="24" width="4" height="4" fill="#1a1a2e" />
<rect x="124" y="24" width="4" height="4" fill="#16213e" />
<rect x="128" y="24" width="4" height="4" fill="#16213e" />
<rect x="132" y="24" width="4" height="4" fill="#16213e" />
<rect x="136" y="24" width="4" height="4" fill="#1a1a2e" />
<rect x="140" y="24" width="4" height="4" fill="#16213e" />
<rect x="144" y="24" width="4" height="4" fill="#16213e" />
<rect x="148" y="24" width="4" height="4" fill="#16213e" />
<rect x="152" y="24" width="4" height="4" fill="#16213e" />
<rect x="156" y="24" width="4" height="4" fill="#16213e" />
<rect x="160" y="24" width="4" height="4" fill="#16213e" />
<rect x="164" y="24" width="4" height="4" fill="#1a1a2e" />
<rect x="168" y="24" width="4" height="4" fill="#16213e" />
<rect x="172" y="24" width="4" height="4" fill="#16213e" />
<rect x="176" y="24" width="4" height="4" fill="#1a1a2e" />
<rect x="180" y="24" width="4" height="4" fill="#1a1a2e" />
<rect x="184" y="24" width="4" height="4" fill="#1a1a2e" />
<rect x="188" y="24" width="4" height="4" fill="#1a1a2e" />
<rect x="192" y="24" width="4" height="4" fill="#16213e" />
<rect x="196" y="24" width="4" height="4" fill="#1a1a2e" />
<rect x="200" y="24" width="4" height="4" fill="#16213e" />
<rect x="204" y="24" width="4" height="4" fill="#16213e" />
<rect x="208" y="24" width="4" height="4" fill="#16213e" />
<rect x="212" y="24" width="4" height="4" fill="#1a1a2e" />
<rect x="216" y="24" width="4" height="4" fill="#1a1a2e" />
<rect x="220" y="24" width="4" height="4" fill="#16213e" />
<rect x="224" y="24" width="4" height="4" fill="#16213e" />
<rect x="228" y="24" width="4" height="4" fill="#16213e" />
<rect x="232" y="24" width="4" height="4" fill="#1a1a2e" />
<rect x="236" y="24" width="4" height="4" fill="#16213e" />
<rect x="240" y="24" width="4" height="4" fill="#16213e" />
<rect x="244" y="24" width="4" height="4" fill="#16213e" />
<rect x="248" y="24" width="4" height="4" fill="#16213e" />
<rect x="252" y="24" width="4" height="4" fill="#16213e" />
<rect x="0" y="28" width="4" height="4" fill="#16213e" />
<rect x="4" y="28" width="4" height="4" fill="#1a1a2e" />
<rect x="8" y="28" width="4" height="4" fill="#16213e" />
<rect x="12" y="28" width="4" height="4" fill="#1a1a2e" />
<rect x="16" y="28" width="4" height="4" fill="#16213e" />
<rect x="20" y="28" width="4" height="4" fill="#1a1a2e" />
<rect x="24" y="28" width="4" height="4" fill="#16213e" />
<rect x="28" y="28" width="4" height="4" fill="#16213e" />
<rect x="32" y="28" width="4" height="4" fill="#16213e" />
<rect x="36" y="28" width="4" height="4" fill="#1a1a2e" />
<rect x="40" y="28" width="4" height="4" fill="#16213e" />
<rect x="44" y="28" width="4" height="4" fill="#16213e" />
<rect x="48" y="28" width="4" height="4" fill="#1a1a2e" />
<rect x="52" y="28" width="4" height="4" fill="#16213e" />
<rect x="56" y="28" width="4" height="4" fill="#16213e" />
<rect x="60" y="28" width="4" height="4" fill="#16213e" />
<rect x="64" y="28" width="4" height="4" fill="#16213e" />
<rect x="68" y="28" width="4" height="4" fill="#1a1a2e" />
<rect x="72" y="28" width="4" height="4" fill="#16213e" />
<rect x="76" y="28" width="4" height="4" fill="#16213e" />
<rect x="80" y="28" width="4" height="4" fill="#16213e" />
<rect x="84" y="28" width="4" height="4" fill="#1a1a2e" />
<rect x="88" y="28" width="4" height="4" fill="#16213e" />
<rect x="92" y="28" width="4" height="4" fill="#1a1a2e" />
<rect x="96" y="28" width="4" height="4" fill="#16213e" />
<rect x="100" y="28" width="4" height="4" fill="#16213e" />
<rect x="104" y="28" width="4" height="4" fill="#1a1a2e" />
<rect x="108" y="28" width="4" height="4" fill="#16213e" />
<rect x="112" y="28" width="4" height="4" fill="#16213e" />
<rect x="116" y="28" width="4" height="4" fill="#16213e" />
<rect x="120" y="28" width="4" height="4" fill="#16213e" />
<rect x="124" y="28" width="4" height="4" fill="#16213e" />
<rect x="128" y="28" width="4" height="4" fill="#16213e" />
<rect x="132" y="28" width="4" height="4" fill="#1a1a2e" />
<rect x="136" y="28" width="4" height="4" fill="#16213e" />
<rect x="140" y="28" width="4" height="4" fill="#16213e" />
<rect x="144" y="28" width="4" height="4" fill="#16213e" />
<rect x="148" y="28" width="4" height="4" fill="#16213e" />
<rect x="152" y="28" width="4" height="4" fill="#16213e" />
<rect x="156" y="28" width="4" height="4" fill="#1a1a2e" />
<rect x="160" y="28" width="4" height="4" fill="#16213e" />
<rect x="164" y="28" width="4" height="4" fill="#1a1a2e" />
<rect x="168" y="28" width="4" height="4" fill="#16213e" />
<rect x="172" y="28" width="4" height="4" fill="#1a1a2e" />
<rect x="176" y="28" width="4" height="4" fill="#16213e" />
<rect x="180" y="28" width="4" height="4" fill="#1a1a2e" />
<rect x="184" y="28" width="4" height="4" fill="#1a1a2e" />
<rect x="188" y="28" width="4" height="4" fill="#1a1a2e" />
<rect x="192" y="28" width="4" height="4" fill="#16213e" />
<rect x="196" y="28" width="4" height="4" fill="#1a1a2e" />
<rect x="200" y="28" width="4" height="4" fill="#16213e" />
<rect x="204" y="28" width="4" height="4" fill="#16213e" />
<rect x="208" y="28" width="4" height="4" fill="#16213e" />
<rect x="212" y="28" width="4" height="4" fill="#16213e" />
<rect x="216" y="28" width="4" height="4" fill="#16213e" />
<rect x="220" y="28" width="4" height="4" fill="#1a1a2e" />
<rect x="224" y="28" width="4" height="4" fill="#16213e" />
<rect x="228" y="28" width="4" height="4" fill="#1a1a2e" />
<rect x="232" y="28" width="4" height="4" fill="#16213e" />
<rect x="236" y="28" width="4" height="4" fill="#16213e" />
<rect x="240" y="28" width="4" height="4" fill="#1a1a2e" />
<rect x="244" y="28" width="4" height="4" fill="#16213e" />
<rect x="248" y="28" width="4" height="4" fill="#1a1a2e" />
<rect x="252" y="28" width="4" height="4" fill="#1a1a2e" />
<rect x="0" y="32" width="4" height="4" fill="#16213e" />
<rect x="4" y="32" width="4" height="4" fill="#1a1a2e" />
<rect x="8" y="32" width="4" height="4" fill="#16213e" />
<rect x="12" y="32" width="4" height="4" fill="#16213e" />
<rect x="16" y="32" width="4" height="4" fill="#16213e" />
<rect x="20" y="32" width="4" height="4" fill="#1a1a2e" />
<rect x="24" y="32" width="4" height="4" fill="#16213e" />
<rect x="28" y="32" width="4" height="4" fill="#1a1a2e" />
<rect x="32" y="32" width="4" height="4" fill="#16213e" />
<rect x="36" y="32" width="4" height="4" fill="#16213e" />
<rect x="40" y="32" width="4" height="4" fill="#1a1a2e" />
<rect x="44" y="32" width="4" height="4" fill="#16213e" />
<rect x="48" y="32" width="4" height="4" fill="#1a1a2e" />
<rect x="52" y="32" width="4" height="4" fill="#1a1a2e" />
<rect x="56" y="32" width="4" height="4" fill="#1a1a2e" />
<rect x="60" y="32" width="4" height="4" fill="#16213e" />

    </pattern>
    
    <!-- Gradient for main design -->
    <linearGradient id="mainGrad" x1="0%" y1="0%" x2="100%" y2="100%">
      <stop offset="0%" style="stop-color:#0f0f23"/>
      <stop offset="50%" style="stop-color:#1a1a3e"/>
      <stop offset="100%" style="stop-color:#0f0f23"/>
    </linearGradient>
    
    <!-- Eye glow effect -->
    <radialGradient id="eyeGlow" cx="50%" cy="50%" r="50%">
      <stop offset="0%" style="stop-color:#00ffff;stop-opacity:1"/>
      <stop offset="100%" style="stop-color:#00ffff;stop-opacity:0"/>
    </radialGradient>
    
    <!-- Circuit pattern -->
    <pattern id="circuit" x="0" y="0" width="40" height="40" patternUnits="userSpaceOnUse">
      <path d="M0 20 L15 20 L20 15 L20 0" fill="none" stroke="#00ffff" stroke-width="0.5" opacity="0.3"/>
      <path d="M40 20 L25 20 L20 25 L20 40" fill="none" stroke="#00ffff" stroke-width="0.5" opacity="0.3"/>
      <circle cx="20" cy="20" r="2" fill="#00ffff" opacity="0.5"/>
    </pattern>
  </defs>
  
  <!-- Background with hidden pattern -->
  <rect width="800" height="800" fill="url(#hiddenPattern)" opacity="0.05"/>
  <rect width="800" height="800" fill="url(#mainGrad)"/>
  <rect width="800" height="800" fill="url(#circuit)" opacity="0.3"/>
  
  <!-- T-Shirt Shape -->
  <g transform="translate(100, 50)">
    <!-- Shirt body -->
    <path d="M100 100 
             Q150 80, 200 100 
             L250 120 
             L350 120 
             Q400 120, 450 100 
             L500 120 
             L520 180 
             L480 200 
             L480 550 
             Q480 580, 450 580 
             L150 580 
             Q120 580, 120 550 
             L120 200 
             L80 180 
             Z" 
          fill="#1a1a2e" 
          stroke="#00ffff" 
          stroke-width="2"/>
    
    <!-- Collar -->
    <path d="M200 100 Q300 140, 400 100" fill="none" stroke="#00ffff" stroke-width="3"/>
    
    <!-- Main Design: All-Seeing Eye with Guardian Theme -->
    <g transform="translate(300, 280)">
      <!-- Outer rings -->
      <circle cx="0" cy="0" r="120" fill="none" stroke="#00ffff" stroke-width="1" opacity="0.3"/>
      <circle cx="0" cy="0" r="100" fill="none" stroke="#00ffff" stroke-width="2" opacity="0.5"/>
      <circle cx="0" cy="0" r="80" fill="none" stroke="#00ffff" stroke-width="1" opacity="0.4"/>
      
      <!-- Eye shape -->
      <path d="M-70 0 Q0 -60, 70 0 Q0 60, -70 0" fill="#0a0a1a" stroke="#00ffff" stroke-width="3"/>
      
      <!-- Iris -->
      <circle cx="0" cy="0" r="35" fill="#00ffff" opacity="0.2"/>
      <circle cx="0" cy="0" r="25" fill="#00ffff" opacity="0.4"/>
      
      <!-- Pupil with glow -->
      <circle cx="0" cy="0" r="15" fill="#000"/>
      <circle cx="0" cy="0" r="15" fill="url(#eyeGlow)" opacity="0.8"/>
      <circle cx="5" cy="-5" r="5" fill="#fff" opacity="0.6"/>
      
      <!-- Guardian text around eye -->
      <path id="textCircle" d="M-90 0 A90 90 0 0 1 90 0" fill="none"/>
      <text fill="#00ffff" font-family="monospace" font-size="12" letter-spacing="4">
        <textPath href="#textCircle">GOYIM GUARDIAN • WATCHING • PROTECTING •</textPath>
      </text>
    </g>
    
    <!-- Binary code strips (decorative, contains partial message) -->
    <g transform="translate(150, 450)" opacity="0.4">
      <text x="0" y="0" fill="#00ffff" font-family="monospace" font-size="8">
        01000111 01001111 01011001 01001001 01001101
      </text>
      <text x="0" y="15" fill="#00ffff" font-family="monospace" font-size="8">
        01000111 01010101 01000001 01010010 01000100
      </text>
      <text x="0" y="30" fill="#00ffff" font-family="monospace" font-size="8">
        01001001 01000001 01001110 00100000 01000001
      </text>
      <text x="0" y="45" fill="#00ffff" font-family="monospace" font-size="8">
        01001001 00100000 01000011 01001111 01000001
      </text>
    </g>
    
    <!-- Coalition tag -->
    <g transform="translate(380, 520)">
      <rect x="0" y="0" width="80" height="25" fill="#00ffff" opacity="0.1" stroke="#00ffff" stroke-width="1"/>
      <text x="40" y="17" fill="#00ffff" font-family="monospace" font-size="10" text-anchor="middle">
        COALITION
      </text>
    </g>
    
    <!-- Edition number -->
    <text x="300" y="560" fill="#00ffff" font-family="monospace" font-size="12" text-anchor="middle" opacity="0.6">
      EDITION 001 / 100
    </text>
  </g>
  
  <!-- Corner decorations -->
  <g opacity="0.5">
    <path d="M20 20 L60 20 L60 25 L25 25 L25 60 L20 60 Z" fill="#00ffff"/>
    <path d="M780 20 L740 20 L740 25 L775 25 L775 60 L780 60 Z" fill="#00ffff"/>
    <path d="M20 780 L60 780 L60 775 L25 775 L25 740 L20 740 Z" fill="#00ffff"/>
    <path d="M780 780 L740 780 L740 775 L775 775 L775 740 L780 740 Z" fill="#00ffff"/>
  </g>
  
  <!-- Title text -->
  <text x="400" y="720" fill="#00ffff" font-family="monospace" font-size="24" text-anchor="middle" font-weight="bold">
    GOYIM GUARDIAN
  </text>
  <text x="400" y="750" fill="#00ffff" font-family="monospace" font-size="14" text-anchor="middle" opacity="0.7">
    COALITION TEE #001
  </text>
</svg>